{
  "accessors": [
    {
      "bufferView": 0,
      "componentType": 5126,
      "count": 441,
      "type": "VEC3",
      "max": [
        0.49999994039535522,
        0.12015575915575027,
        0.50000005960464478
      ],
      "min": [
        -0.5,
        -0.57984423637390137,
        -0.49999994039535522
      ]
    },
    {
      "bufferView": 1,
      "componentType": 5126,
      "count": 441,
      "type": "VEC3",
      "max": [
        1.0,
        1.0,
        1.0
      ],
      "min": [
        -1.0,
        -1.0,
        -1.0
      ]
    },
    {
      "bufferView": 2,
      "componentType": 5126,
      "count": 441,
      "type": "VEC4",
      "max": [
        1.0,
        1.0,
        0.56413757801055908,
        1.0
      ],
      "min": [
        -1.0,
        0.0,
        -0.56413751840591431,
        -1.0
      ]
    },
    {
      "bufferView": 3,
      "componentType": 5126,
      "count": 441,
      "type": "VEC2",
      "max": [
        0.75,
        0.875
      ],
      "min": [
        0.25,
        0.625
      ]
    },
    {
      "bufferView": 4,
      "componentType": 5125,
      "count": 1200,
      "type": "SCALAR",
      "max": [
        440.0
      ],
      "min": [
        0.0
      ]
    }
  ],
  "asset": {
    "generator": "Plattar UnityGLTF (2022.3.14f1)",
    "version": "2.0"
  },
  "buffers": [
    {
      "uri": "joinedLegsTable.bin",
      "byteLength": 25968
    }
  ],
  "bufferViews": [
    {
      "buffer": 0,
      "byteLength": 5292
    },
    {
      "buffer": 0,
      "byteOffset": 5292,
      "byteLength": 5292
    },
    {
      "buffer": 0,
      "byteOffset": 10584,
      "byteLength": 7056
    },
    {
      "buffer": 0,
      "byteOffset": 17640,
      "byteLength": 3528
    },
    {
      "buffer": 0,
      "byteOffset": 21168,
      "byteLength": 4800
    }
  ],
  "materials": [
    {
      "pbrMetallicRoughness": {
        "baseColorFactor": [
          0.0117234113,
          0.00300720776,
          0.0,
          1.0
        ],
        "metallicFactor": 0.0,
        "roughnessFactor": 0.37850469350814819
      },
      "name": "woodTableMaterial.001"
    }
  ],
  "meshes": [
    {
      "primitives": [
        {
          "attributes": {
            "POSITION": 0,
            "NORMAL": 1,
            "TANGENT": 2,
            "TEXCOORD_0": 3
          },
          "indices": 4,
          "material": 0
        }
      ],
      "name": "joinedLegsTable"
    }
  ],
  "nodes": [
    {
      "mesh": 0,
      "rotation": [
        0.0,
        0.0,
        0.0,
        -1.0
      ],
      "name": "joinedLegsTable"
    }
  ],
  "scene": 0,
  "scenes": [
    {
      "nodes": [
        0
      ],
      "name": "joinedLegsTable"
    }
  ]
}